<svg xmlns="http://www.w3.org/2000/svg" viewBox="0 0 800 400" width="800" height="400">
  <rect width="800" height="400" fill="#080808"/>
  <radialGradient id="g3" cx="50%" cy="80%" r="60%">
    <stop offset="0%" stop-color="#D41B1B" stop-opacity="0.12"/>
    <stop offset="100%" stop-color="#080808" stop-opacity="0"/>
  </radialGradient>
  <rect width="800" height="400" fill="url(#g3)"/>
  <!-- Water horizon -->
  <line x1="0" y1="280" x2="800" y2="280" stroke="#D41B1B" stroke-width="1" stroke-opacity="0.3"/>
  <!-- Water reflections -->
  <line x1="0" y1="295" x2="800" y2="295" stroke="#D41B1B" stroke-width="0.5" stroke-opacity="0.15"/>
  <line x1="0" y1="310" x2="800" y2="310" stroke="#D41B1B" stroke-width="0.5" stroke-opacity="0.1"/>
  <!-- City silhouette -->
  <rect x="50" y="200" width="30" height="80" fill="#D41B1B" fill-opacity="0.2"/>
  <rect x="60" y="180" width="10" height="20" fill="#D41B1B" fill-opacity="0.2"/>
  <rect x="100" y="220" width="50" height="60" fill="#D41B1B" fill-opacity="0.15"/>
  <rect x="170" y="190" width="40" height="90" fill="#D41B1B" fill-opacity="0.2"/>
  <rect x="175" y="160" width="6" height="30" fill="#D41B1B" fill-opacity="0.3"/>
  <rect x="230" y="230" width="60" height="50" fill="#D41B1B" fill-opacity="0.15"/>
  <rect x="310" y="210" width="35" height="70" fill="#D41B1B" fill-opacity="0.2"/>
  <rect x="360" y="195" width="55" height="85" fill="#D41B1B" fill-opacity="0.15"/>
  <rect x="370" y="175" width="8" height="20" fill="#D41B1B" fill-opacity="0.3"/>
  <rect x="430" y="220" width="45" height="60" fill="#D41B1B" fill-opacity="0.15"/>
  <rect x="490" y="200" width="40" height="80" fill="#D41B1B" fill-opacity="0.2"/>
  <rect x="545" y="215" width="55" height="65" fill="#D41B1B" fill-opacity="0.15"/>
  <rect x="615" y="225" width="35" height="55" fill="#D41B1B" fill-opacity="0.15"/>
  <rect x="665" y="205" width="50" height="75" fill="#D41B1B" fill-opacity="0.2"/>
  <rect x="730" y="230" width="40" height="50" fill="#D41B1B" fill-opacity="0.15"/>
  <!-- Ship mast -->
  <line x1="260" y1="230" x2="260" y2="130" stroke="#D41B1B" stroke-width="1.5" stroke-opacity="0.5"/>
  <line x1="235" y1="160" x2="285" y2="160" stroke="#D41B1B" stroke-width="1" stroke-opacity="0.4"/>
  <!-- Label -->
  <text x="400" y="360" text-anchor="middle" font-family="serif" font-size="13" fill="#D41B1B" fill-opacity="0.5" letter-spacing="12">KIEL · FÖRDE</text>
</svg>
